<mxfile host="65bd71144e">
    <diagram id="KhUCfNvhIDTQsZcqQasR" name="Page-1">
        <mxGraphModel dx="780" dy="458" grid="1" gridSize="10" guides="1" tooltips="1" connect="1" arrows="1" fold="1" page="1" pageScale="1" pageWidth="1169" pageHeight="827" background="none" math="0" shadow="0">
            <root>
                <mxCell id="0"/>
                <mxCell id="1" parent="0"/>
                <mxCell id="27" style="edgeStyle=none;rounded=0;html=1;exitX=0;exitY=0;exitDx=80;exitDy=10;exitPerimeter=0;entryX=0;entryY=0.417;entryDx=0;entryDy=0;entryPerimeter=0;strokeWidth=2;" parent="1" source="2" target="11" edge="1">
                    <mxGeometry relative="1" as="geometry"/>
                </mxCell>
                <mxCell id="28" style="edgeStyle=none;rounded=0;html=1;exitX=0;exitY=0;exitDx=80;exitDy=10;exitPerimeter=0;entryX=-0.004;entryY=0.304;entryDx=0;entryDy=0;entryPerimeter=0;strokeWidth=2;" parent="1" source="2" target="4" edge="1">
                    <mxGeometry relative="1" as="geometry">
                        <Array as="points">
                            <mxPoint x="332" y="379"/>
                            <mxPoint x="332" y="276"/>
                        </Array>
                    </mxGeometry>
                </mxCell>
                <mxCell id="2" value="playerMove" style="externalPins=0;recursiveResize=0;shadow=0;dashed=0;align=center;html=1;strokeWidth=1;shape=mxgraph.rtl.abstract.entity;container=1;collapsible=0;kind=input;drawPins=0;left=0;right=1;bottom=0;top=0;" parent="1" vertex="1">
                    <mxGeometry x="212" y="369" width="80" height="20" as="geometry"/>
                </mxCell>
                <mxCell id="3" value="tiles" style="externalPins=0;recursiveResize=0;shadow=0;dashed=0;align=center;html=1;strokeWidth=1;shape=mxgraph.rtl.abstract.entity;container=1;collapsible=0;kind=input;drawPins=0;left=0;right=1;bottom=0;top=0;" parent="1" vertex="1">
                    <mxGeometry x="1032.5" y="359" width="50" height="20" as="geometry"/>
                </mxCell>
                <mxCell id="29" style="edgeStyle=none;rounded=0;html=1;entryX=0;entryY=0;entryDx=0;entryDy=30;entryPerimeter=0;strokeWidth=2;" parent="1" target="11" edge="1">
                    <mxGeometry relative="1" as="geometry">
                        <mxPoint x="452" y="279" as="sourcePoint"/>
                        <Array as="points">
                            <mxPoint x="502" y="279"/>
                            <mxPoint x="502" y="359"/>
                        </Array>
                    </mxGeometry>
                </mxCell>
                <mxCell id="55" value="bombLocation" style="edgeLabel;html=1;align=center;verticalAlign=middle;resizable=0;points=[];fontSize=10;rotation=90;" parent="29" vertex="1" connectable="0">
                    <mxGeometry x="-0.0852" relative="1" as="geometry">
                        <mxPoint x="8" as="offset"/>
                    </mxGeometry>
                </mxCell>
                <mxCell id="4" value="" style="externalPins=0;recursiveResize=0;shadow=0;dashed=0;align=center;html=1;strokeWidth=1;shape=mxgraph.rtl.abstract.entity;container=1;collapsible=0;kind=sequential;drawPins=0;left=3;right=2;bottom=0;top=0;" parent="1" vertex="1">
                    <mxGeometry x="372" y="249" width="80" height="90" as="geometry"/>
                </mxCell>
                <mxCell id="53" value="" style="triangle;whiteSpace=wrap;html=1;strokeWidth=1;fontSize=10;fillColor=none;" parent="4" vertex="1">
                    <mxGeometry y="70" width="10" height="19" as="geometry"/>
                </mxCell>
                <mxCell id="5" value="" style="externalPins=0;recursiveResize=0;shadow=0;dashed=0;align=center;html=1;strokeWidth=1;shape=mxgraph.rtl.abstract.entity;container=1;collapsible=0;kind=sequential;drawPins=0;left=3;right=2;bottom=0;top=0;" parent="1" vertex="1">
                    <mxGeometry x="722" y="329" width="55" height="80" as="geometry"/>
                </mxCell>
                <mxCell id="8" value="" style="externalPins=0;recursiveResize=0;shadow=0;dashed=0;align=center;html=1;strokeWidth=1;shape=mxgraph.rtl.abstract.entity;container=1;collapsible=0;kind=sequential;drawPins=0;left=3;right=2;bottom=0;top=0;" parent="1" vertex="1">
                    <mxGeometry x="672" y="504" width="60" height="70" as="geometry"/>
                </mxCell>
                <mxCell id="57" value="" style="triangle;whiteSpace=wrap;html=1;strokeWidth=1;fontSize=10;fillColor=none;" parent="8" vertex="1">
                    <mxGeometry y="51" width="10" height="19" as="geometry"/>
                </mxCell>
                <mxCell id="34" style="edgeStyle=none;rounded=0;html=1;exitX=1;exitY=0.5;exitDx=0;exitDy=0;entryX=-0.055;entryY=0.514;entryDx=0;entryDy=0;entryPerimeter=0;strokeWidth=2;" parent="1" source="65" target="10" edge="1">
                    <mxGeometry relative="1" as="geometry"/>
                </mxCell>
                <mxCell id="9" value="" style="externalPins=0;recursiveResize=0;shadow=0;dashed=0;align=center;html=1;strokeWidth=1;shape=mxgraph.rtl.abstract.entity;container=1;collapsible=0;kind=sequential;drawPins=0;left=3;right=2;bottom=0;top=0;" parent="1" vertex="1">
                    <mxGeometry x="836.5" y="499" width="103.5" height="171" as="geometry"/>
                </mxCell>
                <mxCell id="65" value="sevenSegs" style="text;html=1;strokeColor=none;fillColor=none;align=center;verticalAlign=middle;whiteSpace=wrap;rounded=0;strokeWidth=1;fontSize=10;" parent="9" vertex="1">
                    <mxGeometry x="45.5" y="54" width="58" height="30" as="geometry"/>
                </mxCell>
                <mxCell id="67" value="anodes" style="text;html=1;strokeColor=none;fillColor=none;align=center;verticalAlign=middle;whiteSpace=wrap;rounded=0;strokeWidth=1;fontSize=10;" parent="9" vertex="1">
                    <mxGeometry x="65.5" y="102" width="38" height="19" as="geometry"/>
                </mxCell>
                <mxCell id="68" value="" style="triangle;whiteSpace=wrap;html=1;strokeWidth=1;fontSize=10;fillColor=none;" parent="9" vertex="1">
                    <mxGeometry x="1" y="152" width="10" height="19" as="geometry"/>
                </mxCell>
                <mxCell id="72" value="digit0" style="text;html=1;strokeColor=none;fillColor=none;align=center;verticalAlign=middle;whiteSpace=wrap;rounded=0;strokeWidth=1;fontSize=10;" parent="9" vertex="1">
                    <mxGeometry y="64" width="26" height="20" as="geometry"/>
                </mxCell>
                <mxCell id="71" value="digit1" style="text;html=1;strokeColor=none;fillColor=none;align=center;verticalAlign=middle;whiteSpace=wrap;rounded=0;strokeWidth=1;fontSize=10;" parent="9" vertex="1">
                    <mxGeometry y="45" width="26" height="20" as="geometry"/>
                </mxCell>
                <mxCell id="70" value="digit2" style="text;html=1;strokeColor=none;fillColor=none;align=center;verticalAlign=middle;whiteSpace=wrap;rounded=0;strokeWidth=1;fontSize=10;" parent="9" vertex="1">
                    <mxGeometry y="18" width="26" height="20" as="geometry"/>
                </mxCell>
                <mxCell id="69" value="digit3" style="text;html=1;strokeColor=none;fillColor=none;align=center;verticalAlign=middle;whiteSpace=wrap;rounded=0;strokeWidth=1;fontSize=10;" parent="9" vertex="1">
                    <mxGeometry width="26" height="20" as="geometry"/>
                </mxCell>
                <mxCell id="78" value="blank" style="text;html=1;strokeColor=none;fillColor=none;align=center;verticalAlign=middle;whiteSpace=wrap;rounded=0;strokeWidth=1;fontSize=10;" parent="9" vertex="1">
                    <mxGeometry y="101" width="28" height="20" as="geometry"/>
                </mxCell>
                <mxCell id="10" value="timer" style="externalPins=0;recursiveResize=0;shadow=0;dashed=0;align=center;html=1;strokeWidth=1;shape=mxgraph.rtl.abstract.entity;container=1;collapsible=0;kind=input;drawPins=0;left=0;right=1;bottom=0;top=0;" parent="1" vertex="1">
                    <mxGeometry x="1030" y="558" width="55" height="20" as="geometry"/>
                </mxCell>
                <mxCell id="46" style="edgeStyle=none;rounded=0;html=1;exitX=1.002;exitY=0.874;exitDx=0;exitDy=0;exitPerimeter=0;entryX=0;entryY=0;entryDx=0;entryDy=20;entryPerimeter=0;strokeWidth=2;fontSize=10;" parent="1" source="11" target="8" edge="1">
                    <mxGeometry relative="1" as="geometry">
                        <Array as="points">
                            <mxPoint x="652" y="434"/>
                            <mxPoint x="652" y="524"/>
                        </Array>
                    </mxGeometry>
                </mxCell>
                <mxCell id="105" value="timerControl" style="edgeLabel;html=1;align=center;verticalAlign=middle;resizable=0;points=[];fontSize=10;rotation=90;" parent="46" vertex="1" connectable="0">
                    <mxGeometry x="-0.2213" y="1" relative="1" as="geometry">
                        <mxPoint x="7" y="2" as="offset"/>
                    </mxGeometry>
                </mxCell>
                <mxCell id="11" value="" style="externalPins=0;recursiveResize=0;shadow=0;dashed=0;align=center;html=1;strokeWidth=1;shape=mxgraph.rtl.abstract.entity;container=1;collapsible=0;kind=sequential;drawPins=0;left=3;right=2;bottom=0;top=0;" parent="1" vertex="1">
                    <mxGeometry x="552" y="329" width="80" height="120" as="geometry"/>
                </mxCell>
                <mxCell id="54" value="" style="triangle;whiteSpace=wrap;html=1;strokeWidth=1;fontSize=10;fillColor=none;" parent="11" vertex="1">
                    <mxGeometry y="101" width="10" height="19" as="geometry"/>
                </mxCell>
                <mxCell id="14" value="reset" style="externalPins=0;recursiveResize=0;shadow=0;dashed=0;align=center;html=1;strokeWidth=1;shape=mxgraph.rtl.abstract.entity;container=1;collapsible=0;kind=input;drawPins=0;left=0;right=1;bottom=0;top=0;" parent="1" vertex="1">
                    <mxGeometry x="212" y="419" width="80" height="20" as="geometry"/>
                </mxCell>
                <mxCell id="15" value="clock" style="externalPins=0;recursiveResize=0;shadow=0;dashed=0;align=center;html=1;strokeWidth=1;shape=mxgraph.rtl.abstract.entity;container=1;collapsible=0;kind=input;drawPins=0;left=0;right=1;bottom=0;top=0;" parent="1" vertex="1">
                    <mxGeometry x="212" y="459" width="80" height="20" as="geometry"/>
                </mxCell>
                <mxCell id="24" value="16" style="verticalLabelPosition=top;shadow=0;dashed=0;align=center;html=1;verticalAlign=bottom;shape=mxgraph.electrical.transmission.bus_width;pointerEvents=1;fontSize=10;labelPosition=center;strokeWidth=2;spacing=0;" parent="1" vertex="1">
                    <mxGeometry x="302" y="374" width="10" height="10" as="geometry"/>
                </mxCell>
                <mxCell id="31" value="16" style="verticalLabelPosition=top;shadow=0;dashed=0;align=center;html=1;verticalAlign=bottom;shape=mxgraph.electrical.transmission.bus_width;pointerEvents=1;strokeWidth=2;fontSize=10;labelPosition=center;spacing=0;" parent="1" vertex="1">
                    <mxGeometry x="472" y="274" width="10" height="10" as="geometry"/>
                </mxCell>
                <mxCell id="36" value="" style="endArrow=classic;html=1;rounded=0;exitX=0;exitY=0;exitDx=80;exitDy=40;exitPerimeter=0;entryX=0;entryY=0;entryDx=0;entryDy=40;entryPerimeter=0;strokeWidth=2;" parent="1" source="11" target="5" edge="1">
                    <mxGeometry width="50" height="50" relative="1" as="geometry">
                        <mxPoint x="762" y="419" as="sourcePoint"/>
                        <mxPoint x="812" y="369" as="targetPoint"/>
                    </mxGeometry>
                </mxCell>
                <mxCell id="136" value="litTiles" style="edgeLabel;html=1;align=center;verticalAlign=middle;resizable=0;points=[];" vertex="1" connectable="0" parent="36">
                    <mxGeometry x="-0.6741" relative="1" as="geometry">
                        <mxPoint x="3" y="-10" as="offset"/>
                    </mxGeometry>
                </mxCell>
                <mxCell id="37" value="" style="endArrow=classic;html=1;rounded=0;entryX=-0.032;entryY=0.497;entryDx=0;entryDy=0;entryPerimeter=0;strokeWidth=2;" parent="1" target="3" edge="1">
                    <mxGeometry width="50" height="50" relative="1" as="geometry">
                        <mxPoint x="777" y="369" as="sourcePoint"/>
                        <mxPoint x="827" y="319" as="targetPoint"/>
                    </mxGeometry>
                </mxCell>
                <mxCell id="41" value="" style="externalPins=0;recursiveResize=0;ellipse;whiteSpace=wrap;html=1;aspect=fixed;fillColor=#FFFFFF;strokeColor=none;noLabel=1;snapToPoint=1;perimeter=none;resizable=0;rotatable=0;" parent="1" vertex="1">
                    <mxGeometry x="329.5" y="377" width="5" height="5" as="geometry"/>
                </mxCell>
                <mxCell id="42" value="16" style="verticalLabelPosition=top;shadow=0;dashed=0;align=center;html=1;verticalAlign=bottom;shape=mxgraph.electrical.transmission.bus_width;pointerEvents=1;strokeWidth=2;fontSize=10;labelPosition=center;spacing=0;" parent="1" vertex="1">
                    <mxGeometry x="672" y="364" width="10" height="10" as="geometry"/>
                </mxCell>
                <mxCell id="43" value="16" style="verticalLabelPosition=top;shadow=0;dashed=0;align=center;html=1;verticalAlign=bottom;shape=mxgraph.electrical.transmission.bus_width;pointerEvents=1;strokeWidth=2;fontSize=10;labelPosition=center;spacing=0;" parent="1" vertex="1">
                    <mxGeometry x="856" y="364" width="10" height="10" as="geometry"/>
                </mxCell>
                <mxCell id="45" value="7" style="verticalLabelPosition=top;shadow=0;dashed=0;align=center;html=1;verticalAlign=bottom;shape=mxgraph.electrical.transmission.bus_width;pointerEvents=1;strokeWidth=2;fontSize=10;labelPosition=center;spacing=0;" parent="1" vertex="1">
                    <mxGeometry x="975.5" y="563" width="10" height="10" as="geometry"/>
                </mxCell>
                <mxCell id="66" value="SEVEN_SEGMENT_DRIVER" style="text;html=1;strokeColor=none;fillColor=none;align=center;verticalAlign=middle;whiteSpace=wrap;rounded=0;strokeWidth=1;fontSize=10;" parent="1" vertex="1">
                    <mxGeometry x="825.5" y="474" width="150" height="30" as="geometry"/>
                </mxCell>
                <mxCell id="83" value="" style="endArrow=none;html=1;rounded=0;strokeWidth=2;fontSize=10;exitX=1.001;exitY=0.786;exitDx=0;exitDy=0;exitPerimeter=0;" parent="1" source="11" edge="1">
                    <mxGeometry width="50" height="50" relative="1" as="geometry">
                        <mxPoint x="790" y="440" as="sourcePoint"/>
                        <mxPoint x="780" y="570" as="targetPoint"/>
                        <Array as="points">
                            <mxPoint x="780" y="423"/>
                        </Array>
                    </mxGeometry>
                </mxCell>
                <mxCell id="102" value="score" style="edgeLabel;html=1;align=center;verticalAlign=middle;resizable=0;points=[];fontSize=10;" parent="83" vertex="1" connectable="0">
                    <mxGeometry x="-0.3382" relative="1" as="geometry">
                        <mxPoint x="2" y="6" as="offset"/>
                    </mxGeometry>
                </mxCell>
                <mxCell id="84" value="7:4" style="verticalLabelPosition=bottom;shadow=0;dashed=0;align=right;html=1;verticalAlign=top;shape=mxgraph.electrical.transmission.bus_width;pointerEvents=1;strokeWidth=2;fontSize=10;labelPosition=left;spacing=0;rotation=90;horizontal=0;" parent="1" vertex="1">
                    <mxGeometry x="780" y="545.5" width="10" height="10" as="geometry"/>
                </mxCell>
                <mxCell id="86" value="" style="endArrow=classic;html=1;rounded=0;strokeWidth=2;fontSize=10;exitX=0.97;exitY=0.073;exitDx=0;exitDy=0;exitPerimeter=0;entryX=0;entryY=0.5;entryDx=0;entryDy=0;" parent="1" source="84" edge="1">
                    <mxGeometry width="50" height="50" relative="1" as="geometry">
                        <mxPoint x="810" y="554.5" as="sourcePoint"/>
                        <mxPoint x="836.5" y="555.5" as="targetPoint"/>
                        <Array as="points"/>
                    </mxGeometry>
                </mxCell>
                <mxCell id="87" value="3:0" style="verticalLabelPosition=bottom;shadow=0;dashed=0;align=right;html=1;verticalAlign=top;shape=mxgraph.electrical.transmission.bus_width;pointerEvents=1;strokeWidth=2;fontSize=10;labelPosition=left;spacing=0;rotation=90;horizontal=0;" parent="1" vertex="1">
                    <mxGeometry x="780" y="563.5" width="10" height="10" as="geometry"/>
                </mxCell>
                <mxCell id="88" value="" style="endArrow=classic;html=1;rounded=0;strokeWidth=2;fontSize=10;exitX=0.97;exitY=0.073;exitDx=0;exitDy=0;exitPerimeter=0;entryX=0;entryY=0.5;entryDx=0;entryDy=0;" parent="1" source="87" edge="1">
                    <mxGeometry width="50" height="50" relative="1" as="geometry">
                        <mxPoint x="820" y="564.5" as="sourcePoint"/>
                        <mxPoint x="836.5" y="574" as="targetPoint"/>
                        <Array as="points"/>
                    </mxGeometry>
                </mxCell>
                <mxCell id="89" value="" style="endArrow=classic;html=1;rounded=0;strokeWidth=2;fontSize=10;" parent="1" edge="1">
                    <mxGeometry width="50" height="50" relative="1" as="geometry">
                        <mxPoint x="770" y="610" as="sourcePoint"/>
                        <mxPoint x="836.5" y="610" as="targetPoint"/>
                    </mxGeometry>
                </mxCell>
                <mxCell id="90" value="&quot;0000&quot;" style="edgeLabel;html=1;align=center;verticalAlign=middle;resizable=0;points=[];fontSize=10;" parent="89" vertex="1" connectable="0">
                    <mxGeometry x="-0.4947" relative="1" as="geometry">
                        <mxPoint x="-37" as="offset"/>
                    </mxGeometry>
                </mxCell>
                <mxCell id="92" value="refreshRate" style="externalPins=0;recursiveResize=0;shadow=0;dashed=0;align=center;html=1;strokeWidth=1;shape=mxgraph.rtl.abstract.entity;container=1;collapsible=0;kind=input;drawPins=0;left=0;right=1;bottom=0;top=0;" parent="1" vertex="1">
                    <mxGeometry x="1030" y="600" width="75" height="20" as="geometry"/>
                </mxCell>
                <mxCell id="93" style="edgeStyle=none;rounded=0;html=1;exitX=1;exitY=0.5;exitDx=0;exitDy=0;entryX=-0.033;entryY=0.561;entryDx=0;entryDy=0;entryPerimeter=0;strokeWidth=2;fontSize=10;" parent="1" source="67" target="92" edge="1">
                    <mxGeometry relative="1" as="geometry"/>
                </mxCell>
                <mxCell id="94" value="4" style="verticalLabelPosition=top;shadow=0;dashed=0;align=center;html=1;verticalAlign=bottom;shape=mxgraph.electrical.transmission.bus_width;pointerEvents=1;strokeWidth=2;fontSize=10;labelPosition=center;spacing=0;" parent="1" vertex="1">
                    <mxGeometry x="975.5" y="606" width="10" height="10" as="geometry"/>
                </mxCell>
                <mxCell id="96" value="" style="endArrow=none;html=1;strokeWidth=2;rounded=0;fontSize=10;exitX=0;exitY=0;exitDx=60;exitDy=20;exitPerimeter=0;" parent="1" source="8" edge="1">
                    <mxGeometry width="100" relative="1" as="geometry">
                        <mxPoint x="720" y="530" as="sourcePoint"/>
                        <mxPoint x="790" y="490" as="targetPoint"/>
                        <Array as="points">
                            <mxPoint x="790" y="524"/>
                        </Array>
                    </mxGeometry>
                </mxCell>
                <mxCell id="97" value="down" style="edgeLabel;html=1;align=center;verticalAlign=middle;resizable=0;points=[];fontSize=10;" parent="96" vertex="1" connectable="0">
                    <mxGeometry x="-0.5037" relative="1" as="geometry">
                        <mxPoint x="-5" y="-15" as="offset"/>
                    </mxGeometry>
                </mxCell>
                <mxCell id="98" value="7:4" style="verticalLabelPosition=bottom;shadow=0;dashed=0;align=right;html=1;verticalAlign=top;shape=mxgraph.electrical.transmission.bus_width;pointerEvents=1;strokeWidth=2;fontSize=10;labelPosition=left;spacing=0;rotation=90;horizontal=0;" parent="1" vertex="1">
                    <mxGeometry x="790" y="499" width="10" height="10" as="geometry"/>
                </mxCell>
                <mxCell id="99" value="" style="endArrow=classic;html=1;rounded=0;strokeWidth=2;fontSize=10;exitX=0.97;exitY=0.073;exitDx=0;exitDy=0;exitPerimeter=0;entryX=0;entryY=0.5;entryDx=0;entryDy=0;" parent="1" source="98" target="69" edge="1">
                    <mxGeometry width="50" height="50" relative="1" as="geometry">
                        <mxPoint x="820" y="508" as="sourcePoint"/>
                        <mxPoint x="846.5" y="509" as="targetPoint"/>
                        <Array as="points"/>
                    </mxGeometry>
                </mxCell>
                <mxCell id="100" value="3:0" style="verticalLabelPosition=bottom;shadow=0;dashed=0;align=right;html=1;verticalAlign=top;shape=mxgraph.electrical.transmission.bus_width;pointerEvents=1;strokeWidth=2;fontSize=10;labelPosition=left;spacing=0;rotation=90;horizontal=0;" parent="1" vertex="1">
                    <mxGeometry x="790" y="517" width="10" height="10" as="geometry"/>
                </mxCell>
                <mxCell id="101" value="" style="endArrow=classic;html=1;rounded=0;strokeWidth=2;fontSize=10;exitX=0.97;exitY=0.073;exitDx=0;exitDy=0;exitPerimeter=0;entryX=0;entryY=0.5;entryDx=0;entryDy=0;" parent="1" source="100" target="70" edge="1">
                    <mxGeometry width="50" height="50" relative="1" as="geometry">
                        <mxPoint x="830" y="518" as="sourcePoint"/>
                        <mxPoint x="846.5" y="527.5" as="targetPoint"/>
                        <Array as="points"/>
                    </mxGeometry>
                </mxCell>
                <mxCell id="103" value="8" style="verticalLabelPosition=top;shadow=0;dashed=0;align=center;html=1;verticalAlign=bottom;shape=mxgraph.electrical.transmission.bus_width;pointerEvents=1;strokeWidth=2;fontSize=10;labelPosition=center;spacing=0;" parent="1" vertex="1">
                    <mxGeometry x="672" y="418" width="10" height="10" as="geometry"/>
                </mxCell>
                <mxCell id="104" value="8" style="verticalLabelPosition=bottom;shadow=0;dashed=0;align=center;html=1;verticalAlign=top;shape=mxgraph.electrical.transmission.bus_width;pointerEvents=1;strokeWidth=2;fontSize=10;labelPosition=center;spacing=0;" parent="1" vertex="1">
                    <mxGeometry x="750" y="520" width="10" height="10" as="geometry"/>
                </mxCell>
                <mxCell id="112" value="" style="endArrow=classic;html=1;rounded=0;strokeWidth=1;fontSize=10;" parent="1" edge="1">
                    <mxGeometry width="50" height="50" relative="1" as="geometry">
                        <mxPoint x="494" y="414" as="sourcePoint"/>
                        <mxPoint x="552" y="414" as="targetPoint"/>
                    </mxGeometry>
                </mxCell>
                <mxCell id="113" value="reset" style="edgeLabel;html=1;align=center;verticalAlign=middle;resizable=0;points=[];fontSize=10;" parent="112" vertex="1" connectable="0">
                    <mxGeometry x="0.1592" y="1" relative="1" as="geometry">
                        <mxPoint x="-46" y="1" as="offset"/>
                    </mxGeometry>
                </mxCell>
                <mxCell id="114" value="" style="endArrow=classic;html=1;rounded=0;strokeWidth=1;fontSize=10;" parent="1" edge="1">
                    <mxGeometry width="50" height="50" relative="1" as="geometry">
                        <mxPoint x="614" y="545.5" as="sourcePoint"/>
                        <mxPoint x="672" y="545.5" as="targetPoint"/>
                    </mxGeometry>
                </mxCell>
                <mxCell id="115" value="reset" style="edgeLabel;html=1;align=center;verticalAlign=middle;resizable=0;points=[];fontSize=10;" parent="114" vertex="1" connectable="0">
                    <mxGeometry x="0.1592" y="1" relative="1" as="geometry">
                        <mxPoint x="-46" y="1" as="offset"/>
                    </mxGeometry>
                </mxCell>
                <mxCell id="116" value="" style="endArrow=classic;html=1;rounded=0;strokeWidth=1;fontSize=10;" parent="1" edge="1">
                    <mxGeometry width="50" height="50" relative="1" as="geometry">
                        <mxPoint x="778" y="640" as="sourcePoint"/>
                        <mxPoint x="836" y="640" as="targetPoint"/>
                    </mxGeometry>
                </mxCell>
                <mxCell id="117" value="reset" style="edgeLabel;html=1;align=center;verticalAlign=middle;resizable=0;points=[];fontSize=10;" parent="116" vertex="1" connectable="0">
                    <mxGeometry x="0.1592" y="1" relative="1" as="geometry">
                        <mxPoint x="-46" y="1" as="offset"/>
                    </mxGeometry>
                </mxCell>
                <mxCell id="121" value="" style="endArrow=classic;html=1;rounded=0;strokeWidth=1;fontSize=10;" parent="1" edge="1">
                    <mxGeometry width="50" height="50" relative="1" as="geometry">
                        <mxPoint x="490" y="440" as="sourcePoint"/>
                        <mxPoint x="552" y="440" as="targetPoint"/>
                    </mxGeometry>
                </mxCell>
                <mxCell id="122" value="clock" style="edgeLabel;html=1;align=center;verticalAlign=middle;resizable=0;points=[];fontSize=10;" parent="121" vertex="1" connectable="0">
                    <mxGeometry x="0.2454" y="-1" relative="1" as="geometry">
                        <mxPoint x="-43" y="-2" as="offset"/>
                    </mxGeometry>
                </mxCell>
                <mxCell id="124" value="" style="endArrow=classic;html=1;rounded=0;strokeWidth=1;fontSize=10;" parent="1" edge="1">
                    <mxGeometry width="50" height="50" relative="1" as="geometry">
                        <mxPoint x="610" y="563.5" as="sourcePoint"/>
                        <mxPoint x="672" y="563.5" as="targetPoint"/>
                    </mxGeometry>
                </mxCell>
                <mxCell id="125" value="clock" style="edgeLabel;html=1;align=center;verticalAlign=middle;resizable=0;points=[];fontSize=10;" parent="124" vertex="1" connectable="0">
                    <mxGeometry x="0.2454" y="-1" relative="1" as="geometry">
                        <mxPoint x="-43" y="-2" as="offset"/>
                    </mxGeometry>
                </mxCell>
                <mxCell id="126" value="" style="endArrow=classic;html=1;rounded=0;strokeWidth=1;fontSize=10;" parent="1" edge="1">
                    <mxGeometry width="50" height="50" relative="1" as="geometry">
                        <mxPoint x="774.5" y="660" as="sourcePoint"/>
                        <mxPoint x="836.5" y="660" as="targetPoint"/>
                    </mxGeometry>
                </mxCell>
                <mxCell id="127" value="clock" style="edgeLabel;html=1;align=center;verticalAlign=middle;resizable=0;points=[];fontSize=10;" parent="126" vertex="1" connectable="0">
                    <mxGeometry x="0.2454" y="-1" relative="1" as="geometry">
                        <mxPoint x="-43" y="-2" as="offset"/>
                    </mxGeometry>
                </mxCell>
                <mxCell id="128" value="" style="endArrow=classic;html=1;rounded=0;strokeWidth=1;fontSize=10;" parent="1" edge="1">
                    <mxGeometry width="50" height="50" relative="1" as="geometry">
                        <mxPoint x="314" y="302.3100000000001" as="sourcePoint"/>
                        <mxPoint x="372" y="302.3100000000001" as="targetPoint"/>
                    </mxGeometry>
                </mxCell>
                <mxCell id="129" value="reset" style="edgeLabel;html=1;align=center;verticalAlign=middle;resizable=0;points=[];fontSize=10;" parent="128" vertex="1" connectable="0">
                    <mxGeometry x="0.1592" y="1" relative="1" as="geometry">
                        <mxPoint x="-46" y="1" as="offset"/>
                    </mxGeometry>
                </mxCell>
                <mxCell id="130" value="" style="endArrow=classic;html=1;rounded=0;strokeWidth=1;fontSize=10;" parent="1" edge="1">
                    <mxGeometry width="50" height="50" relative="1" as="geometry">
                        <mxPoint x="310" y="328.3099999999999" as="sourcePoint"/>
                        <mxPoint x="372" y="328.3099999999999" as="targetPoint"/>
                    </mxGeometry>
                </mxCell>
                <mxCell id="131" value="clock" style="edgeLabel;html=1;align=center;verticalAlign=middle;resizable=0;points=[];fontSize=10;" parent="130" vertex="1" connectable="0">
                    <mxGeometry x="0.2454" y="-1" relative="1" as="geometry">
                        <mxPoint x="-43" y="-2" as="offset"/>
                    </mxGeometry>
                </mxCell>
                <mxCell id="132" value="RANDOMIZER" style="text;html=1;align=center;verticalAlign=middle;resizable=0;points=[];autosize=1;strokeColor=none;fillColor=none;fontSize=10;" parent="1" vertex="1">
                    <mxGeometry x="362" y="228" width="90" height="30" as="geometry"/>
                </mxCell>
                <mxCell id="133" value="GAME_MECHANICS" style="text;html=1;align=center;verticalAlign=middle;resizable=0;points=[];autosize=1;strokeColor=none;fillColor=none;fontSize=10;" parent="1" vertex="1">
                    <mxGeometry x="541" y="306" width="120" height="30" as="geometry"/>
                </mxCell>
                <mxCell id="134" value="TILE_DRIVER" style="text;html=1;align=center;verticalAlign=middle;resizable=0;points=[];autosize=1;strokeColor=none;fillColor=none;fontSize=10;" parent="1" vertex="1">
                    <mxGeometry x="712" y="306" width="90" height="30" as="geometry"/>
                </mxCell>
                <mxCell id="135" value="GAME_TIMER" style="text;html=1;align=center;verticalAlign=middle;resizable=0;points=[];autosize=1;strokeColor=none;fillColor=none;fontSize=10;" parent="1" vertex="1">
                    <mxGeometry x="661" y="479" width="90" height="30" as="geometry"/>
                </mxCell>
            </root>
        </mxGraphModel>
    </diagram>
</mxfile>